<?xml version="1.0" encoding="UTF-8"?>
<svg width="20px" height="20px" viewBox="0 0 20 20" version="1.1" xmlns="http://www.w3.org/2000/svg" xmlns:xlink="http://www.w3.org/1999/xlink">
    <title>ic_weather_sunny</title>
    <defs>
        <linearGradient x1="56.0529849%" y1="0%" x2="56.0529849%" y2="100%" id="linearGradient-1">
            <stop stop-color="#FFDC74" offset="0%"></stop>
            <stop stop-color="#FFC322" offset="100%"></stop>
        </linearGradient>
        <linearGradient x1="56.0529849%" y1="0%" x2="56.0529849%" y2="100%" id="linearGradient-2">
            <stop stop-color="#FFD14E" offset="0%"></stop>
            <stop stop-color="#FFD14E" offset="100%"></stop>
        </linearGradient>
        <linearGradient x1="50%" y1="0%" x2="50%" y2="96.0384828%" id="linearGradient-3">
            <stop stop-color="#FFDF5C" offset="0%"></stop>
            <stop stop-color="#FFC323" offset="100%"></stop>
        </linearGradient>
        <linearGradient x1="50%" y1="0%" x2="50%" y2="96.0384828%" id="linearGradient-4">
            <stop stop-color="#FFD14E" offset="0%"></stop>
            <stop stop-color="#FFD14E" offset="100%"></stop>
        </linearGradient>
    </defs>
    <g id="ic_weather_sunny" stroke="none" stroke-width="1" fill="none" fill-rule="evenodd">
        <g id="分组" transform="translate(2.291667, 2.291667)">
            <path d="M3.38414634,7.70833333 C3.38414634,10.0965159 5.3201508,12.0325203 7.70833333,12.0325203 C10.0965159,12.0325203 12.0325203,10.0965159 12.0325203,7.70833333 C12.0325203,5.3201508 10.0965159,3.38414634 7.70833333,3.38414634 C5.3201508,3.38414634 3.38414634,5.3201508 3.38414634,7.70833333 L3.38414634,7.70833333 Z" id="Path-Copy" fill="url(#linearGradient-2)"></path>
            <path d="M7.70833333,-0.56402439 C8.0198354,-0.56402439 8.27235772,-0.311502069 8.27235772,-3.33066907e-16 L8.27235772,1.69207317 C8.27235772,2.00357524 8.0198354,2.25609756 7.70833333,2.25609756 C7.39683126,2.25609756 7.14430894,2.00357524 7.14430894,1.69207317 L7.14430894,-3.33066907e-16 C7.14430894,-0.311502069 7.39683126,-0.56402439 7.70833333,-0.56402439 Z M12.7601226,1.85889309 C12.9803879,1.63862787 13.3375084,1.63862787 13.5577736,1.85889309 C13.7780388,2.07915832 13.7780388,2.43627881 13.5577736,2.65654403 L12.3612972,3.85302045 C12.1410319,4.07328567 11.7839114,4.07328567 11.5636462,3.85302045 C11.343381,3.63275522 11.343381,3.27563473 11.5636462,3.0553695 L12.7601226,1.85889309 Z M15.4166667,7.14430894 C15.7281687,7.14430894 15.9806911,7.39683126 15.9806911,7.70833333 C15.9806911,8.0198354 15.7281687,8.27235772 15.4166667,8.27235772 L13.7245935,8.27235772 C13.4130914,8.27235772 13.1605691,8.0198354 13.1605691,7.70833333 C13.1605691,7.39683126 13.4130914,7.14430894 13.7245935,7.14430894 L15.4166667,7.14430894 Z M11.5636462,11.5636462 C11.7839114,11.343381 12.1410319,11.343381 12.3612972,11.5636462 L13.5577736,12.7601226 C13.7780388,12.9803879 13.7780388,13.3375084 13.5577736,13.5577736 C13.3375084,13.7780388 12.9803879,13.7780388 12.7601226,13.5577736 L11.5636462,12.3612972 C11.343381,12.1410319 11.343381,11.7839114 11.5636462,11.5636462 Z M7.70833333,13.1605691 C8.0198354,13.1605691 8.27235772,13.4130914 8.27235772,13.7245935 L8.27235772,15.4166667 C8.27235772,15.7281687 8.0198354,15.9806911 7.70833333,15.9806911 C7.39683126,15.9806911 7.14430894,15.7281687 7.14430894,15.4166667 L7.14430894,13.7245935 C7.14430894,13.4130914 7.39683126,13.1605691 7.70833333,13.1605691 Z M3.0553695,11.5636462 C3.27563473,11.343381 3.63275522,11.343381 3.85302045,11.5636462 C4.07328567,11.7839114 4.07328567,12.1410319 3.85302045,12.3612972 L2.65654403,13.5577736 C2.43627881,13.7780388 2.07915832,13.7780388 1.85889309,13.5577736 C1.63862787,13.3375084 1.63862787,12.9803879 1.85889309,12.7601226 L3.0553695,11.5636462 Z M1.69207317,7.14430894 C2.00357524,7.14430894 2.25609756,7.39683126 2.25609756,7.70833333 C2.25609756,8.0198354 2.00357524,8.27235772 1.69207317,8.27235772 L-2.10942375e-15,8.27235772 C-0.311502069,8.27235772 -0.56402439,8.0198354 -0.56402439,7.70833333 C-0.56402439,7.39683126 -0.311502069,7.14430894 -2.10942375e-15,7.14430894 L1.69207317,7.14430894 Z M1.85889309,1.85889309 C2.07915832,1.63862787 2.43627881,1.63862787 2.65654403,1.85889309 L3.85302045,3.0553695 C4.07328567,3.27563473 4.07328567,3.63275522 3.85302045,3.85302045 C3.63275522,4.07328567 3.27563473,4.07328567 3.0553695,3.85302045 L1.85889309,2.65654403 C1.63862787,2.43627881 1.63862787,2.07915832 1.85889309,1.85889309 Z" id="Combined-Shape" fill="url(#linearGradient-4)" fill-rule="nonzero"></path>
        </g>
    </g>
</svg>